<svg xmlns="http://www.w3.org/2000/svg" xmlns:xlink="http://www.w3.org/1999/xlink" width="500" zoomAndPan="magnify" viewBox="0 0 375 374.999991" height="500" preserveAspectRatio="xMidYMid meet" version="1.0"><defs><g/><clipPath id="9a2eaaa280"><path d="M 47 220.28125 L 328 220.28125 L 328 246.53125 L 47 246.53125 Z M 47 220.28125 " clip-rule="nonzero"/></clipPath></defs><g fill="#ffffff" fill-opacity="1"><g transform="translate(43.215477, 206.360398)"><g><path d="M 17.960938 0.859375 C 23.074219 0.859375 27.628906 -0.773438 31.324219 -6.144531 L 32.011719 0 L 40.648438 0 L 40.648438 -26.039062 C 40.648438 -36.523438 33.773438 -43.828125 22.085938 -43.828125 C 13.621094 -43.828125 8.164062 -40.046875 4.039062 -34.417969 L 12.074219 -28.617188 C 13.921875 -31.753906 17.230469 -34.675781 22.171875 -34.675781 C 27.714844 -34.675781 30.636719 -31.066406 30.636719 -25.609375 L 19.464844 -25.609375 C 9.839844 -25.609375 2.363281 -22.515625 2.363281 -13.191406 C 2.363281 -4.210938 9.152344 0.859375 17.960938 0.859375 Z M 19.464844 -7.992188 C 15.382812 -7.992188 13.105469 -10.011719 13.105469 -12.847656 C 13.105469 -15.554688 15.296875 -18.046875 20.066406 -18.046875 L 30.636719 -18.046875 C 30.464844 -12.675781 25.4375 -7.992188 19.464844 -7.992188 Z M 19.464844 -7.992188 "/></g></g></g><g fill="#ffffff" fill-opacity="1"><g transform="translate(83.523317, 206.360398)"><g><path d="M 14.953125 0.859375 C 17.445312 0.859375 20.582031 0.429688 22.773438 0 L 22.773438 -8.808594 C 21.65625 -8.636719 20.496094 -8.550781 19.894531 -8.550781 C 17.789062 -8.550781 16.457031 -9.410156 16.457031 -11.429688 L 16.457031 -60.714844 L 5.972656 -60.714844 L 5.972656 -8.550781 C 5.972656 -0.988281 10.011719 0.859375 14.953125 0.859375 Z M 14.953125 0.859375 "/></g></g></g><g fill="#ffffff" fill-opacity="1"><g transform="translate(102.863338, 206.360398)"><g><path d="M 5.972656 -51.046875 L 16.886719 -51.046875 L 16.886719 -60.714844 L 5.972656 -60.714844 Z M 6.230469 0 L 16.628906 0 L 16.628906 -42.925781 L 6.230469 -42.925781 Z M 6.230469 0 "/></g></g></g><g fill="#ffffff" fill-opacity="1"><g transform="translate(120.441714, 206.360398)"><g/></g></g><g fill="#ffffff" fill-opacity="1"><g transform="translate(136.301416, 206.360398)"><g><path d="M 6.316406 0 L 16.800781 0 L 16.800781 -12.589844 L 23.417969 -19.894531 L 36.007812 0 L 48.382812 0 L 30.550781 -26.296875 L 46.621094 -42.925781 L 33 -42.925781 L 16.800781 -25.09375 L 16.800781 -60.714844 L 6.316406 -60.714844 Z M 6.316406 0 "/></g></g></g><g fill="#ffffff" fill-opacity="1"><g transform="translate(179.05836, 206.360398)"><g><path d="M 6.316406 0 L 16.972656 0 L 16.972656 -21.742188 C 16.972656 -28.875 20.152344 -34.332031 26.855469 -34.332031 C 33.171875 -34.332031 34.589844 -29.734375 34.589844 -24.449219 L 34.589844 0 L 45.246094 0 L 45.246094 -25.78125 C 45.246094 -34.761719 40.648438 -43.828125 29.390625 -43.828125 C 25.179688 -43.828125 20.410156 -42.152344 16.972656 -37.941406 L 16.972656 -60.714844 L 6.316406 -60.714844 Z M 6.316406 0 "/></g></g></g><g fill="#ffffff" fill-opacity="1"><g transform="translate(224.006618, 206.360398)"><g><path d="M 17.960938 0.859375 C 23.074219 0.859375 27.628906 -0.773438 31.324219 -6.144531 L 32.011719 0 L 40.648438 0 L 40.648438 -26.039062 C 40.648438 -36.523438 33.773438 -43.828125 22.085938 -43.828125 C 13.621094 -43.828125 8.164062 -40.046875 4.039062 -34.417969 L 12.074219 -28.617188 C 13.921875 -31.753906 17.230469 -34.675781 22.171875 -34.675781 C 27.714844 -34.675781 30.636719 -31.066406 30.636719 -25.609375 L 19.464844 -25.609375 C 9.839844 -25.609375 2.363281 -22.515625 2.363281 -13.191406 C 2.363281 -4.210938 9.152344 0.859375 17.960938 0.859375 Z M 19.464844 -7.992188 C 15.382812 -7.992188 13.105469 -10.011719 13.105469 -12.847656 C 13.105469 -15.554688 15.296875 -18.046875 20.066406 -18.046875 L 30.636719 -18.046875 C 30.464844 -12.675781 25.4375 -7.992188 19.464844 -7.992188 Z M 19.464844 -7.992188 "/></g></g></g><g fill="#ffffff" fill-opacity="1"><g transform="translate(264.314446, 206.360398)"><g><path d="M 6.230469 0 L 16.628906 0 L 16.628906 -23.503906 C 16.628906 -30.980469 20.410156 -34.160156 26.296875 -34.160156 C 31.667969 -34.160156 34.503906 -30.078125 34.503906 -24.449219 L 34.503906 0 L 44.859375 0 L 44.859375 -25.78125 C 44.859375 -34.761719 40.5625 -43.828125 29.304688 -43.828125 C 25.09375 -43.828125 20.066406 -42.152344 16.628906 -37.941406 L 16.628906 -42.925781 L 6.230469 -42.925781 Z M 6.230469 0 "/></g></g></g><g fill="#ffffff" fill-opacity="1"><g transform="translate(308.918981, 206.360398)"><g><path d="M 5.972656 -51.046875 L 16.886719 -51.046875 L 16.886719 -60.714844 L 5.972656 -60.714844 Z M 6.230469 0 L 16.628906 0 L 16.628906 -42.925781 L 6.230469 -42.925781 Z M 6.230469 0 "/></g></g></g><g clip-path="url(#9a2eaaa280)"><path fill="#f9c041" d="M 326.355469 233.933594 C 308.914062 229.878906 291.246094 226.820312 273.46875 224.714844 C 255.351562 222.566406 237.136719 221.371094 218.898438 220.820312 C 201.054688 220.277344 183.195312 220.414062 165.355469 221.003906 C 147.242188 221.601562 129.144531 222.65625 111.070312 223.949219 C 93.136719 225.230469 75.210938 226.730469 57.324219 228.511719 C 54.695312 228.769531 52.0625 229.019531 49.4375 229.273438 C 46.9375 229.511719 47.472656 233.320312 49.957031 233.121094 C 68.144531 231.683594 86.335938 230.242188 104.53125 228.910156 C 122.445312 227.59375 140.375 226.496094 158.328125 225.839844 C 176.160156 225.1875 194.007812 224.945312 211.847656 225.328125 C 229.84375 225.714844 247.832031 226.785156 265.730469 228.695312 C 274.183594 229.601562 282.617188 230.695312 291.015625 231.996094 C 274.035156 231.1875 257.046875 230.53125 240.046875 230.210938 C 211.625 229.671875 183.140625 230.101562 154.800781 232.476562 C 138.824219 233.816406 122.894531 235.800781 107.089844 238.5 C 104.679688 238.914062 105.328125 242.964844 107.757812 242.757812 C 131.902344 240.726562 156.136719 239.714844 180.363281 239.695312 C 204.453125 239.671875 228.53125 240.632812 252.542969 242.546875 C 259.316406 243.085938 266.082031 243.683594 272.839844 244.371094 C 276.128906 244.703125 279.417969 245.039062 282.703125 245.402344 C 286.390625 245.804688 290.113281 246.046875 293.792969 246.507812 C 296.601562 246.859375 297.449219 242.523438 294.628906 242.171875 C 291.3125 241.753906 288.027344 241.15625 284.707031 240.769531 C 281.691406 240.414062 278.679688 240.078125 275.664062 239.753906 C 269.625 239.109375 263.574219 238.550781 257.519531 238.042969 C 245.613281 237.046875 233.679688 236.328125 221.742188 235.847656 C 209.503906 235.355469 197.261719 235.109375 185.019531 235.109375 C 187.734375 235.007812 190.449219 234.917969 193.167969 234.84375 C 221.34375 234.066406 249.558594 234.855469 277.707031 236.101562 C 293.585938 236.808594 309.453125 237.734375 325.324219 238.605469 C 326.519531 238.667969 327.632812 237.90625 327.875 236.714844 C 328.089844 235.652344 327.539062 234.207031 326.355469 233.933594 " fill-opacity="1" fill-rule="nonzero"/></g></svg>